<svg xmlns="http://www.w3.org/2000/svg" viewBox="0 0 500 500"><g id="freepik--background-complete--inject-2"><polygon points="65.26 348.87 93.19 344.15 117.36 319.54 160.59 364.49 190.49 345.91 211.58 363.06 252.9 317.66 285.41 314.65 320.27 263.07 358.15 301.02 380.52 266.4 394.48 264.4 413.04 230 449.3 290.01 500 500 0 500 65.26 348.87" style="fill:#dbdbdb"></polygon><polygon points="70.15 414.75 69.53 413.96 111.56 381.18 172.85 375.93 172.93 375.95 227.13 390.31 274.51 349.18 274.66 349.16 341.04 339.62 390.54 306.32 413.48 254 414.39 254.4 391.34 306.99 391.22 307.07 341.41 340.58 341.3 340.6 274.95 350.13 227.39 391.42 227.13 391.35 172.76 376.94 111.94 382.15 70.15 414.75" style="fill:#fff"></polygon><circle cx="66.32" cy="414.1" r="5.78" style="fill:#dbdbdb"></circle><path d="M66.32,420.38a6.29,6.29,0,1,1,6.28-6.28A6.29,6.29,0,0,1,66.32,420.38Zm0-11.57a5.29,5.29,0,1,0,5.28,5.29A5.29,5.29,0,0,0,66.32,408.81Z" style="fill:#fff"></path><circle cx="111.48" cy="381.66" r="5.78" style="fill:#dbdbdb"></circle><path d="M111.48,388a6.29,6.29,0,1,1,6.29-6.28A6.29,6.29,0,0,1,111.48,388Zm0-11.57a5.29,5.29,0,1,0,5.29,5.29A5.29,5.29,0,0,0,111.48,376.38Z" style="fill:#fff"></path><path d="M178.59,375.56a5.79,5.79,0,1,1-5.78-5.78A5.78,5.78,0,0,1,178.59,375.56Z" style="fill:#dbdbdb"></path><path d="M172.81,381.84a6.28,6.28,0,1,1,6.28-6.28A6.29,6.29,0,0,1,172.81,381.84Zm0-11.56a5.28,5.28,0,1,0,5.28,5.28A5.29,5.29,0,0,0,172.81,370.28Z" style="fill:#fff"></path><circle cx="226.99" cy="391" r="5.78" style="fill:#dbdbdb"></circle><path d="M227,397.28a6.29,6.29,0,1,1,6.28-6.28A6.29,6.29,0,0,1,227,397.28Zm0-11.57a5.29,5.29,0,1,0,5.28,5.29A5.29,5.29,0,0,0,227,385.71Z" style="fill:#fff"></path><circle cx="274.73" cy="350.31" r="5.78" style="fill:#dbdbdb"></circle><path d="M274.73,356.59a6.28,6.28,0,1,1,6.28-6.28A6.28,6.28,0,0,1,274.73,356.59Zm0-11.56a5.28,5.28,0,1,0,5.28,5.28A5.29,5.29,0,0,0,274.73,345Z" style="fill:#fff"></path><circle cx="341.23" cy="339.61" r="5.78" style="fill:#dbdbdb"></circle><path d="M341.23,345.89a6.28,6.28,0,1,1,6.28-6.28A6.29,6.29,0,0,1,341.23,345.89Zm0-11.56a5.28,5.28,0,1,0,5.28,5.28A5.29,5.29,0,0,0,341.23,334.33Z" style="fill:#fff"></path><circle cx="390.99" cy="306.81" r="5.78" style="fill:#dbdbdb"></circle><path d="M391,313.09a6.29,6.29,0,1,1,6.28-6.28A6.29,6.29,0,0,1,391,313.09Zm0-11.57a5.29,5.29,0,1,0,5.28,5.29A5.29,5.29,0,0,0,391,301.52Z" style="fill:#fff"></path><circle cx="414.2" cy="254.22" r="5.78" style="fill:#dbdbdb"></circle><path d="M414.2,260.5a6.29,6.29,0,1,1,6.29-6.28A6.29,6.29,0,0,1,414.2,260.5Zm0-11.57a5.29,5.29,0,1,0,5.29,5.29A5.29,5.29,0,0,0,414.2,248.93Z" style="fill:#fff"></path><circle cx="110.24" cy="113.26" r="33.06" transform="translate(-47.8 111.12) rotate(-45)" style="fill:#dbdbdb"></circle><path d="M366.58,146.91l87.61-.13s-4.37-5.67-9.17-6.37c0,0-9.38-27.79-25-28-14.54-.16-20.34,17.13-20.34,17.13s-6.75-7.74-13.18-4.18-10.05,13.71-10.05,13.71S369.2,143,366.58,146.91Z" style="fill:#ebebeb"></path><path d="M212.82,247.06,102,247.23s0-7.08,15.25-8.48c0,0,13.89-31,35.17-26.84,13.25,2.57,20.05,20.75,20.05,20.75s10-14.33,18-11.57,12.79,18,12.79,18S211.56,243.06,212.82,247.06Z" style="fill:#ebebeb"></path><path d="M385.2,215.5l-75.33.12S317,209,320.13,209s12.34-22.23,24.13-21.3,18.06,17.46,18.06,17.46S376.64,200.63,385.2,215.5Z" style="fill:#ebebeb"></path><path d="M110.24,146.22l-64.43.1s3.2-4.17,6.73-4.7c0,0,6.84-20.46,18.34-20.62,10.68-.15,15,12.55,15,12.55s4.94-5.71,9.68-3.11S103,140.5,103,140.5,108.3,143.36,110.24,146.22Z" style="fill:#ebebeb"></path></g><g id="freepik--Mountain--inject-2"><polygon points="332.85 358.79 308.6 358.79 312.13 320.43 329.32 320.43 332.85 358.79" style="fill:#FFC727"></polygon><polygon points="75.92 500 424.08 500 394.41 453.42 372.05 439.84 335.58 358.59 259.03 358.59 250.55 373.93 244.77 374.3 229.06 394.56 147.43 394.56 130.24 418.34 111.42 430.76 75.92 500" style="fill:#37474f"></polygon><polygon points="354.11 399.86 354.1 399.86 330.51 378.65 312.3 400.04 296.56 378.65 269.11 425.4 252.82 397.26 240.13 422.2 230.32 412.82 215.62 447.99 195.45 413.67 184.47 429.29 171.92 413.46 148.68 436.05 130.24 418.33 147.43 394.56 229.06 394.56 244.77 374.3 250.55 373.92 259.04 358.6 335.58 358.6 354.11 399.86" style="fill:#ebebeb"></polygon><polygon points="347.92 437.7 353.46 465.86 378.45 478.94 347.92 437.7" style="fill:#263238"></polygon><polygon points="117.27 493.57 136.09 474.95 138.58 456.66 117.27 493.57" style="fill:#263238"></polygon><polygon points="198.63 494.9 226.52 430.7 226.99 477.63 198.63 494.9" style="fill:#263238"></polygon><polygon points="330.63 414.35 344.15 444.8 332.85 430.7 330.63 414.35" style="fill:#263238"></polygon></g><g id="freepik--Character--inject-2"><path d="M318.14,361c-2.09.68-61.49-.09-63.73-1.56-.86-.54-1.25-9.21-1.43-19.69v-.32c0-2.16-.07-4.39-.07-6.64,0-.31,0-.62,0-.93L255.78,301l39.74.4L291.6,332l-.05,1.21-.24,6.31,0,.65s22.6,10.47,24.9,12.34S320.22,360.32,318.14,361Z" style="fill:#dd6a57"></path><path d="M318.14,361c-2.09.68-61.49-.09-63.73-1.56-.86-.54-1.25-9.21-1.43-19.69v-.32c0-2.16-.07-4.39-.07-6.64,0-.31,0-.62,0-.93l38.7.11-.05,1.21-.24,6.31,0,.65s22.6,10.47,24.9,12.34S320.22,360.32,318.14,361Z" style="fill:#ebebeb"></path><path d="M318.14,361c-1.07.34-17.21.31-33,0-3.17-.06-6.33-.14-9.33-.22-11.25-.31-20.55-.77-21.41-1.33s-1.25-9-1.42-19.25c0-.15,0-.29,0-.44s0-.22,0-.33H253l38.28.07,0,.65s22.61,10.46,24.9,12.34S320.22,360.32,318.14,361Z" style="fill:#455a64"></path><path d="M317.5,358.67c-10-.37-50.42-.94-60.35-.56-.08,0-.08.06,0,.07,9.92.59,50.33.83,60.34.66C317.71,358.83,317.71,358.68,317.5,358.67Z" style="fill:#263238"></path><path d="M295.58,339.64c-3.94-.79-8.76-.24-11.81,2.52-.12.11,0,.28.16.24a54.79,54.79,0,0,1,11.62-2.26A.25.25,0,0,0,295.58,339.64Z" style="fill:#263238"></path><path d="M298.4,341.39c-3.93-.79-8.76-.24-11.81,2.52-.12.11,0,.28.17.24a54.54,54.54,0,0,1,11.62-2.26A.25.25,0,0,0,298.4,341.39Z" style="fill:#263238"></path><path d="M301.22,343.14c-3.93-.79-8.76-.24-11.81,2.53-.11.1,0,.27.17.23a55.81,55.81,0,0,1,11.62-2.26A.25.25,0,0,0,301.22,343.14Z" style="fill:#263238"></path><path d="M293.92,339.61H247.3s10.12-92,9.79-93.76c-.17-.9-8.55-13.56-18.51-28.36-5.57-8.29-11.63-17.24-17-25.19-8.91-13.12-16-23.48-16-23.48h45.65s6.14,7.42,14.19,17.91c11.4,14.87,26.62,35.9,33.59,50.79C304.41,249.08,293.92,339.61,293.92,339.61Z" style="fill:#263238"></path><path d="M291.18,243.67c-.86-5.12-3.42-9.61-5.95-14.06a351.45,351.45,0,0,0-23-34.2q-1.25-1.57-2.52-3.15c-.05-.07-.17,0-.11.08a393.6,393.6,0,0,1,22.62,33.73c2.59,4.46,5.49,9,7.15,13.87,1.76,5.18,1.51,10.68,1.24,16.07q-.84,16.68-2,33.33-1.19,16.85-2.71,33.65c-.12,1.37-.25,2.74-.37,4.12,0,.44.39.48.43,0,1.08-11.16,2.26-22.22,3.1-33.41s1.57-22.51,2.17-33.78C291.52,254.56,292.09,249,291.18,243.67Z" style="fill:#455a64"></path><path d="M292,332.31c-6.53-.14-4.65-.19-11.19-.25-3.2,0-24.21-.22-27.2.28-.06,0-.06.12,0,.13,3,.49,24,.31,27.2.28,6.54-.06,4.66-.12,11.19-.25A.1.1,0,1,0,292,332.31Z" style="fill:#455a64"></path><path d="M253.25,239.57c-11.94-18.43-47.68-70.75-47.68-70.75h23.92Z" style="fill:#37474f"></path><path d="M156.27,400c2.09.65,61.48-.72,63.71-2.21.85-.56,1.16-9.22,1.22-19.7v-.33c0-2.16,5-38.46,5-38.46l-38.82.79-4.49,38.13,0,.65s-22.5,10.7-24.78,12.59S154.18,399.4,156.27,400Z" style="fill:#dd6a57"></path><path d="M156.27,400c2.09.65,61.48-.72,63.71-2.21.85-.56,1.16-9.22,1.22-19.7v-.33s.87-7.27.87-7.58l-38.33.68-.86,7.36,0,.65s-22.5,10.7-24.78,12.59S154.18,399.4,156.27,400Z" style="fill:#ebebeb"></path><path d="M156.27,400c2.09.65,61.48-.72,63.71-2.21.85-.56,1.16-9.22,1.22-19.7v-.33l-38.32.46,0,.65s-22.5,10.7-24.78,12.59S154.18,399.4,156.27,400Z" style="fill:#455a64"></path><path d="M156.89,397.72c10-.47,50.41-1.46,60.33-1.17.08,0,.09.06,0,.06-9.9.69-50.31,1.35-60.33,1.28C156.68,397.89,156.68,397.73,156.89,397.72Z" style="fill:#263238"></path><path d="M178.61,378.47c3.93-.83,8.76-.33,11.83,2.4.12.11,0,.28-.16.24A54.65,54.65,0,0,0,178.64,379,.25.25,0,0,1,178.61,378.47Z" style="fill:#263238"></path><path d="M175.81,380.25c3.92-.83,8.75-.34,11.83,2.4.12.11,0,.28-.16.24a54.76,54.76,0,0,0-11.64-2.14A.25.25,0,0,1,175.81,380.25Z" style="fill:#263238"></path><path d="M173,382c3.92-.83,8.75-.34,11.83,2.4.12.11,0,.28-.17.24A54.65,54.65,0,0,0,173,382.53.25.25,0,0,1,173,382Z" style="fill:#263238"></path><path d="M251.22,168.82s-5.47,33.34-5.84,34.41c0,0-2,1-5.71,2.66l-16.2,172.89L180.7,379l23.84-210.13Z" style="fill:#263238"></path><path d="M222,371.17c-6.54-.11-4.66-.17-11.2-.2-3.19,0-24.21-.11-27.19.39a.07.07,0,0,0,0,.14c3,.48,24,.21,27.2.16,6.53-.09,4.65-.13,11.19-.3A.1.1,0,0,0,222,371.17Z" style="fill:#455a64"></path><path d="M214.21,193c-1.66,23.81-2.37,34.43-4.32,58.23s-4.27,47.73-7.15,71.52c-1.61,13.29-3.36,32-5.29,45.25,0,.09.13.12.14,0,4-23.54,6.8-52.73,9.21-76.47s4.32-47.55,6-71.36c1-13.47.8-13.74,1.7-27.21C214.52,192.82,214.23,192.83,214.21,193Z" style="fill:#455a64"></path><path d="M247.15,202.2a79.84,79.84,0,0,0-12.22,6.4c-.16.1,0,.34.12.26,4.13-2,8.34-3.94,12.35-6.17A.28.28,0,0,0,247.15,202.2Z" style="fill:#455a64"></path><path d="M245.58,183.1c-.67,4-1.05,8-1.5,12.06-.1,1-.22,1.93-.32,2.89a5.59,5.59,0,0,1-.7,2.54c-.86,1.35-2.42,2-3.82,2.59-.17.07-.1.33.08.27a9.18,9.18,0,0,0,4.06-2.15c1.29-1.35,1.25-3.41,1.44-5.15a111.46,111.46,0,0,0,.94-13C245.76,183,245.6,183,245.58,183.1Z" style="fill:#455a64"></path><path d="M240.73,184.32c-.14,2.88-.46,5.75-.7,8.62-.12,1.41-.22,2.83-.31,4.25s-.25,2.92-.21,4.36c0,.1.16.12.18,0,.23-1.37.27-2.79.38-4.17s.22-2.9.3-4.36c.16-2.9.24-5.82.5-8.72C240.88,184.23,240.73,184.23,240.73,184.32Z" style="fill:#455a64"></path><path d="M265.41,186.73,247.88,189l-26.32,3.34-20,2.54,2.95-26h46.68S257.36,176.24,265.41,186.73Z" style="fill:#263238"></path><path d="M217.57,123.17c-17.9,4.1-42,1.74-48.1-5.8-5.68-7.06-5.72-38.73-.52-53.55,1.13-3.23,25,4.56,24.34,8.16-1.57,8.42-4.38,27.43-1.76,30.69,2.33,2.9,16.28,6.75,29.22,9.48C236.47,115.46,224.7,121.54,217.57,123.17Z" style="fill:#dd6a57"></path><path d="M171.55,51.66c-2.75,5-4.35,17.48-3.58,20.63s21.86,6.59,24.3,4.31S202.64,56.72,201.63,51,174.39,46.46,171.55,51.66Z" style="fill:#dd6a57"></path><path d="M201.41,60.12c-2.62,1.52-2.92-2.44-2.92-2.44s-1,5.81-4.26,6.33-3.37-4.3-3.39-4.64c-.05.3-1.07,5.61-4.45,5.8s-2.87-4.66-2.83-5c-.14.27-2.06,3.86-4.66,3.41-4.47-.76.2-10.07-1.1-13.5,0,0-6.07,1.54-6.25,1.55,0,0,4.26-8.95,9-10.45a3.18,3.18,0,0,1,3.72,1.38s1.05-3,3.71-3.27c1.36-.11,2.76,2,2.76,2A4,4,0,0,1,194,38.84c1.9-.05,3,2,3,2s2-1.88,3.93-1.3C204.91,40.73,207,56.86,201.41,60.12Z" style="fill:#dd6a57"></path><path d="M197.27,41.19c0-.06.06-.08.08,0a28.19,28.19,0,0,1,1.18,16.74c0,.17-.35.17-.34,0A57.64,57.64,0,0,0,197.27,41.19Z" style="fill:#263238"></path><path d="M190.74,41.21c0-.06.09-.09.12,0A26.4,26.4,0,0,1,191,59.52c-.08.21-.36.31-.28.07C192,55.49,191.87,46.34,190.74,41.21Z" style="fill:#263238"></path><path d="M183.25,60.56c2-5.82,2-11.71,1.1-17.76,0-.07.1-.08.13,0,1.24,2.84,1.42,6.75,1.3,9.8a16.35,16.35,0,0,1-2.32,8.05C183.4,60.72,183.21,60.68,183.25,60.56Z" style="fill:#263238"></path><path d="M198.49,57.68a17.57,17.57,0,0,1-1.15,3.19,6.15,6.15,0,0,1-2,2.56,2,2,0,0,1-1.42.32,2.87,2.87,0,0,1-1.38-.6,3.62,3.62,0,0,1-1.16-2.71L191.33,58l-.81,2.36A10.07,10.07,0,0,1,189,63.23a3.67,3.67,0,0,1-2.52,1.58,2.08,2.08,0,0,1-2.22-1.38,6.25,6.25,0,0,1-.21-3.14l.46-2.91L183.12,60a9.52,9.52,0,0,1-1.4,2,3.87,3.87,0,0,1-1.91,1.24,1.87,1.87,0,0,1-1.87-.61,4.14,4.14,0,0,1-.62-2.24,32.73,32.73,0,0,1,.41-5.09c.1-.85.21-1.71.27-2.57a6.23,6.23,0,0,0-.2-2.58,6.83,6.83,0,0,1,0,2.55c-.13.85-.3,1.69-.47,2.53a27.72,27.72,0,0,0-.69,5.18,4.86,4.86,0,0,0,.65,2.7,2.68,2.68,0,0,0,2.73,1,4.85,4.85,0,0,0,2.41-1.47,10.5,10.5,0,0,0,1.6-2.2l-.92-.32a7.27,7.27,0,0,0,.2,3.72,3.06,3.06,0,0,0,1.3,1.57,3.36,3.36,0,0,0,2,.41,4.58,4.58,0,0,0,3.19-2,11,11,0,0,0,1.63-3.23l-.87-.13a4.36,4.36,0,0,0,1.61,3.28,3.59,3.59,0,0,0,1.75.65,2.6,2.6,0,0,0,1.8-.49,6.34,6.34,0,0,0,2-2.89A15.24,15.24,0,0,0,198.49,57.68Z" style="fill:#263238"></path><path d="M194.15,73.84s19.09-15,9.57-19.58c-2.82-1.36-16.06-3.59-16.56-.94-.65,3.42,4.71,5.38,8.26,6.08,0,0-7.21,4.18-5.79,10.07A6,6,0,0,0,194.15,73.84Z" style="fill:#dd6a57"></path><path d="M204.49,54.69a12.47,12.47,0,0,0-3.37-1.51,26.81,26.81,0,0,0-3.62-.86,42.48,42.48,0,0,0-7.41-.71,6.74,6.74,0,0,0-2,.27,2.48,2.48,0,0,0-1,.54,1.6,1.6,0,0,0-.39.48,1.78,1.78,0,0,0-.21.58,3.09,3.09,0,0,0,.4,2.13,5.94,5.94,0,0,0,1.35,1.51,11.14,11.14,0,0,0,3.4,1.76,24.64,24.64,0,0,0,3.64.94l-.13-.8A15.49,15.49,0,0,0,193,60.76a14,14,0,0,0-1.88,2.12,9.88,9.88,0,0,0-1.27,2.51,7.22,7.22,0,0,0-.36,2.76,8.23,8.23,0,0,1,.64-2.65,10,10,0,0,1,1.43-2.3,12.71,12.71,0,0,1,1.9-1.91,14,14,0,0,1,2.21-1.51l1-.53L195.51,59A26.64,26.64,0,0,1,192,58,11,11,0,0,1,189,56.32a3,3,0,0,1-1.39-2.64c.09-.83,1.42-1,2.57-1.1s2.41,0,3.63.07,2.44.16,3.65.31A23.39,23.39,0,0,1,204.49,54.69Z" style="fill:#263238"></path><path d="M223.44,112.61c-7.71-2.42-29.13-6.23-31-10.45s1-25,1-25L162.5,73s-2.93,35.32,6.67,45.82,35.84,8.31,46.11,6.1S236.27,116.65,223.44,112.61Z" style="fill:#FFC727"></path><path d="M162.5,73s-2.93,35.33,6.67,45.82a12.08,12.08,0,0,0,1.37,1.3c10.51,9,38.14,9.17,48,7.06,6.57-1.42,10.08-6.63,10.74-9.65.39-1.7-1.18-3.41-5.81-4.87-7.71-2.41-29.13-6.23-31-10.45s1-25,1-25Z" style="fill:#FFC727"></path><g style="opacity:0.1"><path d="M228.48,115.21v4.35a12.94,12.94,0,0,1-1.32,2.1,10.38,10.38,0,0,1-.7.84v-8.69A7,7,0,0,1,228.48,115.21Z"></path><path d="M223.16,112.54v12.73c-.28.18-.57.34-.87.5V112.28Z"></path><path d="M219,111.4V127l-.48.11c-.47.1-1,.2-1.54.29V110.89Z"></path><path d="M213.68,110.09v17.76h-.1l-.77.07v-18Z"></path><path d="M209.51,109.05v19.09c-.66,0-1.33.05-2,.06V108.53l1.36.35Z"></path><path d="M204.2,107.63v20.6c-.29,0-.58,0-.87,0V107.38Z"></path><path d="M200,106.36v21.77c-.67,0-1.34-.06-2-.11V105.64C198.65,105.88,199.32,106.12,200,106.36Z"></path><path d="M193.84,103.63a8.7,8.7,0,0,0,.87.53v23.6l-.87-.09Z"></path><path d="M190.55,76.78v50.48c-.68-.09-1.35-.2-2-.31V76.5Z"></path><path d="M185.23,76.05v50.27l-.87-.2V75.93Z"></path><path d="M181.07,75.48v49.78c-.69-.2-1.36-.42-2-.65V75.21Z"></path><path d="M175.75,74.76v48.53c-.3-.13-.59-.27-.87-.41V74.64Z"></path><path d="M171.58,74.19v46.69c-.36-.25-.71-.53-1-.81a9.34,9.34,0,0,1-1-.9V73.91Z"></path><path d="M166.27,73.46v40.66c-.15-.35-.3-.7-.44-1.07s-.23-.58-.32-.87a1.92,1.92,0,0,1-.11-.31V73.35Z"></path><path d="M162.1,82.41v5.21c0-1,0-2.05,0-3,0-.29,0-.58,0-.87C162.09,83.28,162.09,82.84,162.1,82.41Z"></path></g><g style="opacity:0.1"><path d="M222.17,125.83A15,15,0,0,1,219,127l-.48.11c-.47.1-1,.2-1.54.29-1,.16-2.09.3-3.29.42h-18l-1-.09-.87-.09c-1.1-.11-2.2-.25-3.29-.41-.68-.09-1.35-.2-2-.31q-1.68-.28-3.3-.63l-.87-.2-1.2-.29Z"></path><path d="M227.16,121.66a10.38,10.38,0,0,1-.7.84v0H174.21c-.52-.28-1-.56-1.49-.87Z"></path><path d="M229.25,117.48a5.72,5.72,0,0,1-.26.88H168.82a13.9,13.9,0,0,1-1.41-2h61.8A2.11,2.11,0,0,1,229.25,117.48Z"></path><path d="M223.44,112.62c.44.14.86.28,1.25.43H165.83c-.12-.29-.23-.58-.32-.87H222l.34.1.87.26Z"></path><path d="M208.85,108.88H164.5c-.18-.66-.34-1.34-.49-2h37.58c.56.18,1.14.35,1.74.52l.87.25c1.08.31,2.18.61,3.29.9Z"></path><path d="M193.75,103.57H163.38c0-.29-.09-.58-.13-.87h29.5A5.2,5.2,0,0,0,193.75,103.57Z"></path><path d="M191.85,99.4h-29c-.07-.67-.14-1.34-.2-2h29.15C191.77,98.11,191.8,98.78,191.85,99.4Z"></path><path d="M191.84,93.21c0,.29,0,.58,0,.87H162.35c0-.29,0-.58,0-.87Z"></path><path d="M192.21,87.9c-.06.67-.12,1.34-.17,2H162.16c0-.68,0-1.36,0-2Z"></path><path d="M192.61,83.73c0,.28-.05.57-.08.87H162.08c0-.29,0-.58,0-.87Z"></path><path d="M193.26,78.42c-.08.53-.17,1.22-.27,2H162.14c0-.71,0-1.39.06-2Z"></path><path d="M178.4,75.12h-16c0-.32,0-.62,0-.87H172l2.85.39.87.12Z"></path></g><path d="M164.72,79.57c1.12,0,2.23.2,3.34.3s2.22.25,3.32.4q3.19.44,6.38.94l6.37,1c2.2.35,4.45.59,6.61,1.12a.08.08,0,1,1,0,.15c-2.22-.11-4.45-.51-6.65-.8s-4.34-.56-6.51-.86-4.34-.59-6.51-.93c-1.06-.16-2.12-.34-3.17-.55s-2.16-.32-3.19-.63C164.6,79.68,164.65,79.57,164.72,79.57Z" style="fill:#263238"></path><path d="M238.57,122.65c10.05,15.37,29.07,30.41,38.67,29.19,9-1.15,31-23.93,37.52-38.21,1.43-3.11-21.17-14.06-23.18-11-4.72,7.15-15.88,22.8-20,23.33-3.69.47-16.41-6.44-27.62-13.45C230.31,104,234.57,116.52,238.57,122.65Z" style="fill:#dd6a57"></path><path d="M313,115.67c-2.56,2-21.13-8.43-21.62-11.72a12.68,12.68,0,0,1,.26-3.31h0a47.21,47.21,0,0,0-4.8-12.88c-2.8-4.72-7.51-11.41-5-13,3.61-2.35,10.58,5.39,14.31,10.08,1.22-3,2.56-5.5,3.87-6.66,4.35-3.85,24,13.39,23,19.21C322.05,103,315.57,113.69,313,115.67Z" style="fill:#dd6a57"></path><rect x="321.22" y="24.12" width="1.61" height="187.69" transform="translate(-14.32 184.96) rotate(-31.38)" style="fill:#263238"></rect><path d="M294.5,85.44c1.1,2.81,3.78-.1,3.78-.1s-2.86,5.12-.6,7.58,5.3-1.26,5.52-1.51c-.14.27-2.65,5-.13,7.28s5.13-1.85,5.29-2.12c-.06.3-.78,4.29,1.52,5.56,3.95,2.17,6.09-8,9.23-9.85,0,0,3.77,5,3.91,5.09s2.24-9.62-.52-13.72a3.15,3.15,0,0,0-3.75-1.23s1.06-3-.87-4.85c-1-.93-3.37-.18-3.37-.18a4,4,0,0,0-1.06-4c-1.45-1.22-3.61-.27-3.61-.27s-.38-2.69-2.26-3.45C303.79,68.15,292.15,79.41,294.5,85.44Z" style="fill:#dd6a57"></path><path d="M309.47,73.25s0-.1,0-.08a28.07,28.07,0,0,0-11.31,12.32c-.07.16.16.35.28.18A57.69,57.69,0,0,1,309.47,73.25Z" style="fill:#263238"></path><path d="M314.55,77.31c.05,0,0-.12-.08-.09A26.36,26.36,0,0,0,303,91.42c-.06.21.09.46.18.23C304.71,87.67,310.49,80.62,314.55,77.31Z" style="fill:#263238"></path><path d="M308.38,97c2-5.8,5.71-10.37,10.16-14.52.06,0,0-.13-.08-.09-2.74,1.43-5.3,4.37-7.1,6.83A16.12,16.12,0,0,0,308.18,97C308.16,97.08,308.33,97.16,308.38,97Z" style="fill:#263238"></path><path d="M298.18,85.37c-.09.19.3.1.22.3-.34.85-1.95,6.13-.33,7.24,1.31.88,3.41-.26,4-1L303.7,90l-.83,2.34a9.89,9.89,0,0,0-.62,3.22,3.58,3.58,0,0,0,1,2.79,2.09,2.09,0,0,0,2.59.32,6.34,6.34,0,0,0,2.11-2.33l1.45-2.55-.54,2.87a9.87,9.87,0,0,0-.14,2.43,4,4,0,0,0,.72,2.15,1.87,1.87,0,0,0,1.84.68,4.14,4.14,0,0,0,1.87-1.36A33.09,33.09,0,0,0,316,96.34c.45-.73.9-1.46,1.39-2.18a6.05,6.05,0,0,1,1.75-1.88,6.64,6.64,0,0,0-1.55,2c-.43.74-.82,1.5-1.21,2.27a28.05,28.05,0,0,1-2.68,4.46,4.86,4.86,0,0,1-2.18,1.7,2.65,2.65,0,0,1-2.76-.91,4.83,4.83,0,0,1-1-2.64,10.64,10.64,0,0,1,.12-2.7l.92.32a7.28,7.28,0,0,1-2.47,2.77,2.93,2.93,0,0,1-2,.42,3.33,3.33,0,0,1-1.79-.9,4.53,4.53,0,0,1-1.25-3.54A11.17,11.17,0,0,1,302,92l.76.44c-.84.93-3,2.46-5.24,1.34C294.91,91.91,297.61,86.35,298.18,85.37Z" style="fill:#263238"></path><path d="M298.28,85.34a6.17,6.17,0,0,1-1.64.86,1.42,1.42,0,0,1-1.4-.26,3,3,0,0,1-.68-1.48c-.11-.59-.21-1.23-.27-1.89a4.71,4.71,0,0,0-.38,2,2.82,2.82,0,0,0,.76,2,2,2,0,0,0,1.1.48,2.06,2.06,0,0,0,1.11-.23A3.3,3.3,0,0,0,298.28,85.34Z" style="fill:#263238"></path><path d="M241.67,111c7.23,3.6,25.31,15.72,29.6,14s16.61-18.71,16.61-18.71l25.19,18.41s-22.39,27.48-36.59,28.37S244.91,134.18,239,125.46,229.63,105,241.67,111Z" style="fill:#FFC727"></path><g style="opacity:0.1"><path d="M313.07,124.68s-.34.42-1,1.15l-.32.38v-2.47Z"></path><path d="M308.5,121.34v8.59l-.87.95V120.7Z"></path><path d="M304.33,118.29v16.07l-.94.95q-.52.54-1.08,1.08V116.82Z"></path><path d="M299,114.41v25.13l-.87.8V113.78Z"></path><path d="M294.85,111.36v31.87l-1.92,1.56a.39.39,0,0,0-.1.08v-35Z"></path><polygon points="288.69 106.86 288.66 106.86 288.66 106.84 288.69 106.86"></polygon><path d="M289.53,108.88v38.45l-.87.59v-39Z"></path><path d="M285.37,109.64V150l-.26.15q-.84.46-1.68.87l-.08,0V112.18h.07Z"></path><path d="M280.05,116.37v36c-.29.1-.58.18-.87.25V117.41Z"></path><path d="M275.89,121.11v32a15.23,15.23,0,0,1-2-.08V123.11l.62-.58.87-.87Z"></path><path d="M270.57,125.13v27.22c-.29-.07-.58-.16-.87-.26v-27A4.31,4.31,0,0,0,270.57,125.13Z"></path><path d="M266.4,124.22V150.8c-.47-.22-.93-.45-1.4-.69l-.62-.33V123.4C265.09,123.71,265.76,124,266.4,124.22Z"></path><path d="M261.09,121.83v26l-.87-.59V121.38l.54.28Z"></path><path d="M256.92,119.61v25.15c-.68-.54-1.36-1.1-2-1.67V118.47C255.57,118.86,256.25,119.24,256.92,119.61Z"></path><path d="M251.61,116.59v23.53l-.87-.84v-23.2l.44.26Z"></path><path d="M247.44,114.17v21.71l-.52-.57c-.52-.56-1-1.12-1.5-1.67V113l.09,0Z"></path><path d="M242.12,111.2v18.45c-.31-.38-.6-.76-.87-1.12V110.77l.42.2Z"></path><path d="M238,109.55v14.23c-.25-.41-.5-.83-.74-1.25l-.48-.87c-.28-.52-.55-1-.8-1.56V109.37A5.52,5.52,0,0,1,238,109.55Z"></path></g><g style="opacity:0.1"><path d="M285.11,150.11q-.84.46-1.68.87H266.79l-.39-.18c-.47-.22-.93-.45-1.4-.69Z"></path><path d="M292.93,144.79a.39.39,0,0,0-.1.08c-.85.67-1.71,1.32-2.57,1.94H259.65c-.91-.64-1.81-1.32-2.69-2Z"></path><path d="M297.84,140.62l-1,.87H253.09l-.94-.87Z"></path><path d="M303.39,135.31q-.52.54-1.08,1.08l-1,.94H248.81c-.47-.48-.92-1-1.37-1.45l-.52-.57Z"></path><path d="M307.39,131.14l-.82.87H244c-.25-.29-.49-.59-.72-.87Z"></path><path d="M312.11,125.83l-.32.38-1.43,1.64H240.74c-.54-.72-1-1.4-1.45-2Z"></path><path d="M262.51,122.53H237.22l-.48-.87h24l.33.17Z"></path><path d="M310.13,122.53H274.49l.87-.87h33.58Z"></path><path d="M254.7,118.36H235.15a20.43,20.43,0,0,1-.76-2h16.79l.43.25Z"></path><path d="M304.42,118.36h-26l.8-1,.87-1v0h21.61l.65.48,2,1.47Z"></path><path d="M245.51,113.05H233.66a5.13,5.13,0,0,1,0-.87h10.3c.47.25,1,.53,1.48.82Z"></path><path d="M297.16,113.05H282.73l.62-.78v-.09H296Z"></path><path d="M288.66,106.86v2h-2.72c.66-.87,1.17-1.57,1.51-2Z"></path></g><path d="M306.88,127.9c-.8-.77-1.74-1.39-2.61-2.09s-1.77-1.36-2.67-2c-1.73-1.27-3.49-2.52-5.25-3.75l-5.28-3.7c-1.82-1.27-3.62-2.66-5.54-3.78a.08.08,0,0,0-.09.13c1.68,1.46,3.56,2.71,5.34,4l5.29,3.9c1.77,1.3,3.54,2.58,5.33,3.85.88.62,1.77,1.22,2.67,1.81s1.78,1.26,2.74,1.75C306.89,128.07,306.94,128,306.88,127.9Z" style="fill:#263238"></path><path d="M264.45,149.81c-10.79-5.83-21.15-18-25.42-24.35-3.75-5.58-6.54-12.39-4.92-15,.65-1.08,2-1.46,4.43-.75Z" style="fill:#263238"></path><path d="M263.13,183.24c-.86,1.08-62,5.51-62.31,5.15-.92-.95,9.14-64.5,21.89-76.34,2.75-2.54,13.93-3,15.51-2.49,1.78.54,7.28,8.5,10,15.11C253.67,137.9,263.87,182.28,263.13,183.24Z" style="fill:#FFC727"></path><g style="opacity:0.1"><path d="M261.09,171.86v11.81l-.87.12V168c.08.37.17.74.25,1.1s.13.59.19.87C260.81,170.6,261,171.24,261.09,171.86Z"></path><path d="M256.1,151c.28,1.07.55,2.15.82,3.22v30l-2,.21v-38c0,.14.08.29.11.43q.44,1.63.87,3.3C256,150.4,256,150.69,256.1,151Z"></path><path d="M250.79,132c.27.85.55,1.74.82,2.66v50l-.55.05-.32,0V131.84A.84.84,0,0,1,250.79,132Z"></path><path d="M247.44,122.91v62.16l-2,.17V119c.5.88,1,1.78,1.42,2.67q.22.44.42.87A3.26,3.26,0,0,1,247.44,122.91Z"></path><path d="M241.61,113.05c.17.23.34.46.51.71v71.77l-.87.07v-73Z"></path><path d="M238,109.51v76.36l-2,.16V109.38A12.07,12.07,0,0,1,238,109.51Z"></path><path d="M232.64,109.51v76.78l-.87.07V109.58Z"></path><path d="M228.48,110v76.61l-2,.15V110.42C227.1,110.26,227.78,110.12,228.48,110Z"></path><path d="M223.16,111.7V187l-.87.06v-74.6a4,4,0,0,1,.29-.29,1.59,1.59,0,0,1,.13-.13A3.34,3.34,0,0,1,223.16,111.7Z"></path><path d="M219,117v70.29l-2,.14V120.94c.42-.91.85-1.77,1.27-2.58C218.49,117.9,218.74,117.45,219,117Z"></path><path d="M213.68,129.13v58.55l-.87.06V131.67l.18-.53Q213.32,130.12,213.68,129.13Z"></path><path d="M209.51,142.72V188l-1.13.07-.89.06v-38h.13c.27-1.1.54-2.2.82-3.3.17-.67.34-1.35.52-2S209.32,143.41,209.51,142.72Z"></path><path d="M204.2,165.82v22.46l-.87.05v-18c0-.14,0-.29.08-.44s.11-.58.16-.87C203.77,168,204,166.93,204.2,165.82Z"></path></g><g style="opacity:0.1"><path d="M208.38,188l-.89.06-3.29.19-.87.05a19.94,19.94,0,0,1-2.51.06s0-.16,0-.36Z"></path><path d="M263.13,183.24a6.91,6.91,0,0,1-2,.43l-.87.12-3.3.38-2,.21-3.29.31-.55.05H201c.07-.61.16-1.28.27-2h61.84A1,1,0,0,1,263.13,183.24Z"></path><path d="M262.64,179.42H201.79c0-.28.09-.57.13-.87h60.56C262.54,178.85,262.6,179.14,262.64,179.42Z"></path><path d="M261.82,175.26H202.46c.12-.65.23-1.33.36-2h58.57C261.54,173.94,261.69,174.62,261.82,175.26Z"></path><path d="M260.66,169.94H203.41c.05-.28.11-.58.16-.87h56.9C260.54,169.37,260.6,169.66,260.66,169.94Z"></path><path d="M259.72,165.77H204.21c.13-.66.26-1.34.4-2h54.63C259.4,164.43,259.56,165.11,259.72,165.77Z"></path><path d="M258.45,160.46H205.29l.18-.87h52.78C258.32,159.88,258.39,160.17,258.45,160.46Z"></path><path d="M257.44,156.29H206.19c.15-.67.3-1.34.46-2h50.29C257.11,155,257.27,155.62,257.44,156.29Z"></path><path d="M256.1,151H207.41c0-.11.06-.22.08-.32v-.55h48.39C256,150.4,256,150.69,256.1,151Z"></path><path d="M255,146.81H208.44c.17-.67.34-1.35.52-2h45.51c.15.52.29,1.06.43,1.59C254.94,146.52,255,146.67,255,146.81Z"></path><path d="M253.58,141.49H209.85q.1-.44.24-.87h43.25C253.41,140.91,253.5,141.2,253.58,141.49Z"></path><path d="M252.4,137.33H211c.2-.68.41-1.36.62-2h40.16Z"></path><path d="M250.79,132H212.7a3.38,3.38,0,0,1,.11-.34l.18-.53h37.53c.07.23.15.46.22.7A.84.84,0,0,1,250.79,132Z"></path><path d="M249.42,127.85H214.14c.25-.68.5-1.36.77-2h33.77C248.92,126.45,249.16,127.13,249.42,127.85Z"></path><path d="M247.26,122.53h-31c.12-.3.25-.59.38-.87h30.2Q247.07,122.1,247.26,122.53Z"></path><path d="M245.06,118.36H218.24c.25-.46.5-.91.75-1.34.13-.23.26-.46.4-.68h24.45C244.25,117,244.66,117.67,245.06,118.36Z"></path><path d="M241.61,113.05H221.75c.18-.21.36-.4.54-.58a4,4,0,0,1,.29-.29H241l.3.4Z"></path></g><polygon points="234.45 124.3 236.89 119.16 240.77 122.84 240.17 126.81 236.64 127.52 234.45 124.3" style="fill:#263238"></polygon><path d="M236.64,127.52s1.17,25.37,10.41,35.5c9.09,10,23.35,7.91,23.35,7.91l11.84-5.58-9.77-7s-10.79,0-17.66-5.29-14.64-26.27-14.64-26.27Z" style="fill:#263238"></path><path d="M237.59,117.79c-3.13,1.39-9.67-2.57-12.64-6.21-.2-.25-.32-3.25-.64-6.9-.2-2.21-.47-4.67-.89-6.89-.08-.46,14.59.79,14.59.79a35.84,35.84,0,0,0,.24,8.8,4.63,4.63,0,0,0,.26.89,1.31,1.31,0,0,1,.05.15C239.16,110.1,240.61,116.46,237.59,117.79Z" style="fill:#dd6a57"></path><path d="M238.56,108.42a9,9,0,0,1-1.42.34C229.79,110,225.5,101.49,224,97.7c2.63-.09,14,.88,14,.88a35.84,35.84,0,0,0,.24,8.8,4.63,4.63,0,0,0,.26.89A1.31,1.31,0,0,1,238.56,108.42Z" style="fill:#263238"></path><path d="M219,80.71c-1,5.18,3.32,19.32,7.25,22.14,5.68,4.08,14.17,3.57,17.43-3.08,3.17-6.45-2.74-24.78-7-27.25C230.24,68.87,220.36,73.07,219,80.71Z" style="fill:#dd6a57"></path><path d="M225.82,102.75h0" style="fill:none;stroke:#f7a9a0;stroke-linecap:round;stroke-linejoin:round;stroke-width:0px"></path><path d="M231.89,88.44s-.06.06,0,.1c.31.95.51,2.08-.26,2.66,0,0,0,.06,0,0C232.62,90.78,232.34,89.28,231.89,88.44Z" style="fill:#263238"></path><path d="M230.75,87.69c-1.57.34-.78,3.46.68,3.14S232.06,87.41,230.75,87.69Z" style="fill:#263238"></path><path d="M237.71,86.77s.08,0,.09.06c.22,1,.63,2,1.58,2.15a0,0,0,0,1,0,.06C238.29,89.16,237.76,87.72,237.71,86.77Z" style="fill:#263238"></path><path d="M238.31,85.54c1.52-.51,2.44,2.57,1,3S237,86,238.31,85.54Z" style="fill:#263238"></path><path d="M229.15,86.58a11.65,11.65,0,0,0,1.1-.73c.42-.29.78-.47,1-1a.7.7,0,0,0-.31-.77,1.71,1.71,0,0,0-1.69.25,2.53,2.53,0,0,0-1.12,1.39A.72.72,0,0,0,229.15,86.58Z" style="fill:#263238"></path><path d="M239.11,83.67a11.43,11.43,0,0,1-1.31,0,2.16,2.16,0,0,1-1.35-.26.69.69,0,0,1-.17-.81,1.69,1.69,0,0,1,1.55-.73,2.49,2.49,0,0,1,1.7.55A.72.72,0,0,1,239.11,83.67Z" style="fill:#263238"></path><path d="M233.54,97.41a1.51,1.51,0,0,0,1,.36,2.64,2.64,0,0,0,1-.5s.07,0,.05,0a1.32,1.32,0,0,1-1.09.83,1.06,1.06,0,0,1-1-.66S233.5,97.39,233.54,97.41Z" style="fill:#263238"></path><path d="M233.82,94.27a3.38,3.38,0,0,0,2.56.9,4.21,4.21,0,0,0,1.2-.25l.21-.08.21-.09a.25.25,0,0,0,.14-.26h0a.38.38,0,0,0,0-.1h0l0-.09c-.16-.75-.53-1.86-.53-1.86.31.07,1.85.34,1.73,0a51.23,51.23,0,0,0-3.81-9.62c-.05-.09-.21,0-.17.07.85,3.08,2.24,6,3.15,9.07a6,6,0,0,0-1.67-.08c-.1.06.73,2.14.78,2.48v0a4.73,4.73,0,0,1-3.67-.19C233.8,94.12,233.74,94.21,233.82,94.27Z" style="fill:#263238"></path><path d="M237.05,94.78a4,4,0,0,1-1.32,1.55,1.75,1.75,0,0,1-1.06.29c-.82,0-1-.75-1-1.39a4.08,4.08,0,0,1,.16-1A5.16,5.16,0,0,0,237.05,94.78Z" style="fill:#263238"></path><path d="M235.73,96.33a1.75,1.75,0,0,1-1.06.29c-.82,0-1-.75-1-1.39A1.87,1.87,0,0,1,235.73,96.33Z" style="fill:#f7a9a0"></path><path d="M240.2,76.86c-4.07,5-12.63,1.8-12.63,1.8A5.8,5.8,0,0,1,223,83.85s1.56,8.94-.72,9.6c-3.48,1-8.06-10.46-7.65-13.1s3.17-4.11,3.17-4.11a6,6,0,0,1,1.35-4.14c1.83-2.53,10.74-2.51,10.74-2.51a8,8,0,0,1,1.26-3.46,2.24,2.24,0,0,1,3.18-.63,5.27,5.27,0,0,0-.2,2.38c.34,2.65,2.41,2,1.7-.25a3.74,3.74,0,0,0-1.5-2.13c.57-1.8,2.09-2.79,3.34-2.28C239.92,64.13,243.59,72.68,240.2,76.86Z" style="fill:#263238"></path><path d="M223.37,92.13s-3.88-4.22-5.84-2.77,1.4,7.87,4,8.46a2.55,2.55,0,0,0,3.2-1.81Z" style="fill:#dd6a57"></path><path d="M218.54,91.18s0,0,0,.06c1.83.47,3,2,3.83,3.55a1.41,1.41,0,0,0-2.14-.1s0,.1.06.09a1.55,1.55,0,0,1,1.78.31,7.72,7.72,0,0,1,1,1.27c.1.15.37,0,.29-.14l0,0C223.09,94,221,91.08,218.54,91.18Z" style="fill:#263238"></path><path d="M238.71,108.79l-2.45,8.91-11.82-9.57-2.61,3.8s12.32,15.95,12.29,15.17l2.68-7.75,5.65,4.54-1.88-12.79Z" style="fill:#FFC727"></path><path d="M241.88,117.51c-.38-2.1-.71-4.22-1.18-6.3,0-.08-.14-.1-.15,0-.19,2.09,1.31,10.11,1.52,12.05l0,0c-.24-.2-5.22-4-5.25-3.89-.63,1.26-2.6,6.9-2.72,7.41-2-2.54-9.36-11.71-11.59-14.06a.07.07,0,0,0-.12.08c1.78,2.71,11.61,15.08,11.73,15a83.67,83.67,0,0,0,2.79-8.18c.86.84,5.94,5.15,5.92,4.83A68.18,68.18,0,0,0,241.88,117.51Z" style="fill:#263238"></path><path d="M323.4,69.61,305.78,40.75a5.44,5.44,0,0,0,1.13,1.31,6.09,6.09,0,0,0,1.65,1c4.6,1.87,13.23-.22,25.73-6.22l17.62,28.86c-12.5,6-21.13,8.09-25.73,6.22a5.86,5.86,0,0,1-1.65-1A5,5,0,0,1,323.4,69.61Z" style="fill:#FFC727"></path><g style="opacity:0.1"><path d="M323.4,69.61,305.78,40.75a5.44,5.44,0,0,0,1.13,1.31,6.09,6.09,0,0,0,1.65,1c4.6,1.87,13.23-.22,25.73-6.22l17.62,28.86c-12.5,6-21.13,8.09-25.73,6.22a5.86,5.86,0,0,1-1.65-1A5,5,0,0,1,323.4,69.61Z"></path></g><path d="M321.5,65.14a10.78,10.78,0,0,1,1,2.28,10.84,10.84,0,0,0,.93,2.19L305.78,40.75a10.27,10.27,0,0,1-.92-2.19,12.2,12.2,0,0,0-1-2.28Z" style="fill:#FFC727"></path><g style="opacity:0.4"><path d="M321.5,65.14a10.78,10.78,0,0,1,1,2.28,10.84,10.84,0,0,0,.93,2.19L305.78,40.75a10.27,10.27,0,0,1-.92-2.19,12.2,12.2,0,0,0-1-2.28Z"></path></g><path d="M303.89,36.28,321.5,65.14a5.54,5.54,0,0,0-1.3-1.48,6.87,6.87,0,0,0-1.63-.94c-4.78-1.93-13.43.39-26.31,7.07L274.64,40.93c12.88-6.68,21.53-9,26.31-7.06a6.54,6.54,0,0,1,1.63.94A5.57,5.57,0,0,1,303.89,36.28Z" style="fill:#FFC727"></path></g><g id="freepik--speech-bubble--inject-2"><path d="M281.17,65.4a16.37,16.37,0,0,1-27.36,10.36L245.62,77l4.1-7.08A16.19,16.19,0,0,1,248.59,62a16.38,16.38,0,0,1,32.58,3.41Z" style="fill:#fff"></path><path d="M281.17,65.4a16.45,16.45,0,0,1-3.3,8.3,17.38,17.38,0,0,1-1.49,1.71,18.65,18.65,0,0,1-1.73,1.47,15.88,15.88,0,0,1-3.95,2.19,16.62,16.62,0,0,1-4.41,1.06,15.62,15.62,0,0,1-2.27,0,14.45,14.45,0,0,1-2.27-.24,16.49,16.49,0,0,1-8.1-4l.19.06-8.18,1.26-.59.09.3-.52,4.07-7.1,0,.28a16.58,16.58,0,0,1,1-14.59,16.45,16.45,0,0,1,12.12-8.09A16.54,16.54,0,0,1,281.17,65.4Zm0,0A16.21,16.21,0,0,0,262.6,47.68a16,16,0,0,0-6.76,2.67,16.72,16.72,0,0,0-4.9,5.35,16.1,16.1,0,0,0-2.08,6.92A16.42,16.42,0,0,0,250,69.76l.06.15L250,70l-4.12,7.07-.29-.43,8.2-1.15.11,0,.08.08a16.23,16.23,0,0,0,7.84,4,15.12,15.12,0,0,0,2.22.27,16.74,16.74,0,0,0,2.24,0,16,16,0,0,0,4.38-1,15.4,15.4,0,0,0,4-2.13,18.34,18.34,0,0,0,1.73-1.44,19.79,19.79,0,0,0,1.49-1.69A16.44,16.44,0,0,0,281.17,65.4Z" style="fill:#263238"></path><polygon points="262.97 73.04 255.97 65.96 258.32 63.64 262.41 67.77 270.9 54.46 273.68 56.24 262.97 73.04" style="fill:#FFC727"></polygon></g></svg>